<?xml version="1.0" encoding="utf-8"?>
<!-- Generated by IcoMoon.io -->
<!DOCTYPE svg PUBLIC "-//W3C//DTD SVG 1.1//EN" "http://www.w3.org/Graphics/SVG/1.1/DTD/svg11.dtd">
<svg version="1.1" xmlns="http://www.w3.org/2000/svg" xmlns:xlink="http://www.w3.org/1999/xlink" width="32" height="32" viewBox="0 0 32 32">
<g id="icomoon-ignore">
</g>
<path d="M26.667 8h-5.333v-2.667l-2.667-2.667h-5.333l-2.667 2.667v2.667h-5.333c-1.473 0-2.653 1.193-2.653 2.667l-0.013 14.667c0 1.473 1.193 2.667 2.667 2.667h21.333c1.473 0 2.667-1.193 2.667-2.667v-14.667c0-1.473-1.193-2.667-2.667-2.667zM13.333 5.333h5.333v2.667h-5.333v-2.667zM14 23.333l-4.667-4.667 1.887-1.887 2.78 2.78 6.9-6.9 1.887 1.887-8.787 8.787z" fill="#000000"></path>
</svg>
